# AST/ASF file generated using VICON BodyLanguage
# -----------------------------------------------
:version 1.10
:name VICON
:units
  mass 1.0
  length 0.45
  angle deg
:documentation
   .ast/.asf automatically generated from VICON data using
   VICON BodyBuilder and BodyLanguage model FoxedUp or BRILLIANT.MOD
:root
   order TX TY TZ RX RY RZ
   axis XYZ
   position 0 0 0  
   orientation 0 0 0 
:bonedata
  begin
     id 1 
     name lhipjoint
     direction 0.541323 -0.757556 0.364798 
     length 2.47576 
     axis 0 0 0  XYZ
  end
  begin
     id 2 
     name lfemur
     direction 0.34202 -0.939693 0  
     length 7.46493  
     axis 0 0 20  XYZ
    dof rx ry rz
    limits (-160.0 20.0)
           (-70.0 70.0)
           (-60.0 70.0)
  end
  begin
     id 3 
     name ltibia
     direction 0.34202 -0.939693 0   
     length 7.73805   
     axis 0 0 20   XYZ
    dof rx
    limits (-10.0 170.0)
  end
  begin
     id 4 
     name lfoot
     direction 0.107174 -0.294458 0.949636   
     length 2.25864   
     axis -90 7.62852e-016 20   XYZ
    dof rx rz
    limits (-45.0 90.0)
           (-70.0 20.0)
  end
  begin
     id 5 
     name ltoes
     direction 1.53606e-011 -4.21934e-011 1   
     length 1.12451   
     axis -90 7.62852e-016 20   XYZ
    dof rx
    limits (-90.0 20.0)
  end
  begin
     id 6 
     name rhipjoint
     direction -0.524745 -0.766967 0.36933   
     length 2.44538  
     axis 0 0 0  XYZ 
  end
  begin
     id 7 
     name rfemur
     direction -0.34202 -0.939693 0   
     length 7.61604   
     axis 0 0 -20   XYZ
    dof rx ry rz
    limits (-160.0 20.0)
           (-70.0 70.0)
           (-70.0 60.0)
  end
  begin
     id 8 
     name rtibia
     direction -0.34202 -0.939693 0   
     length 7.61056   
     axis 0 0 -20   XYZ
    dof rx
    limits (-10.0 170.0)
 end
 begin
     id 9 
     name rfoot
     direction -0.12616 -0.346623 0.929482   
     length 2.46372  
     axis -90 -7.62852e-016 -20   XYZ
    dof rx rz
    limits (-45.0 90.0)
           (-20.0 70.0)
  end
  begin
     id 10 
     name rtoes
     direction -1.53531e-011 -4.22004e-011 1   
     length 1.21611   
     axis -90 -7.62852e-016 -20   XYZ
    dof rx
    limits (-90.0 20.0)
  end
  begin
     id 11 
     name lowerback
     direction -0.000778023 0.997293 -0.0735223   
     length 2.06139   
     axis 0 0 0   XYZ
    dof rx ry rz
    limits (-20.0 45.0)
           (-30.0 30.0)
           (-30.0 30.0)
  end
  begin
     id 12 
     name upperback
     direction 0.0222598 0.999722 -0.0078355   
     length 2.06383   
     axis 0 0 0   XYZ
    dof rx ry rz
    limits (-20.0 45.0)
           (-30.0 30.0)
           (-30.0 30.0)
  end
  begin
     id 13 
     name thorax
     direction 0.0219654 0.999405 0.0265994   
     length 2.07163   
     axis 0 0 0   XYZ
    dof rx ry rz
    limits (-20.0 45.0)
           (-30.0 30.0)
           (-30.0 30.0)
  end
  begin
     id 14 
     name lowerneck
     direction 0.0213282 0.988147 0.15202   
     length 1.75969   
     axis 0 0 0   XYZ
    dof rx ry rz
    limits (-20.0 45.0)
           (-30.0 30.0)
           (-30.0 30.0)
  end
  begin
     id 15 
     name upperneck
     direction -0.0546456 0.982624 -0.177379   
     length 1.79244   
     axis 0 0 0   XYZ
    dof rx ry rz
    limits (-20.0 45.0)
           (-30.0 30.0)
           (-30.0 30.0)
  end
  begin
     id 16
     name head
     direction -0.0199987 0.996855 -0.076686  
     length 1.80555  
     axis 0 0 0   XYZ
    dof rx ry rz
    limits (-20.0 45.0)
           (-30.0 30.0)
           (-30.0 30.0)
  end
  begin
     id 17 
     name lclavicle
     direction 0.929565 0.363219 -0.063096  
     length 3.55722  
     axis 0 0 0   XYZ
    dof ry rz
    limits (-20.0 10.0)
           (0.0 20.0)
  end
  begin
     id 18 
     name lhumerus
     direction 1 -4.48993e-011 -2.36203e-027   
     length 4.92785   
     axis 180 -30 -90   XYZ
    dof rx ry rz
    limits (-60.0 90.0)
           (-90.0 90.0)
           (-90.0 90.0)
  end
  begin
     id 19
     name lradius
     direction 1 -4.48947e-011 2.02997e-027   
     length 3.44052   
     axis 180 -30 -90   XYZ
    dof rx
    limits (-10.0 170.0)
  end
  begin
     id 20
     name lwrist
     direction 1 -4.48962e-011 1.45991e-027   
     length 1.72026   
     axis 1.49639e-024 90 90   XYZ
    dof ry
    limits (-180.0 0.0)
 end
  begin
     id 21 
     name lhand
     direction 1 -4.48984e-011 2.91906e-027   
     length 0.654326   
     axis -1.863e-015 90 90   XYZ
    dof rx rz
    limits (-90.0 90.0)
           (-45.0 45.0)
  end
  begin
     id 22 
     name lfingers
     direction 1 -4.48961e-011 5.83968e-027   
     length 0.527534   
     axis -3.72598e-015 90 90   XYZ
    dof rx
    limits (0.0 90.0)
  end
  begin
     id 23
     name lthumb
     direction 0.707107 -6.34963e-011 0.707107   
     length 0.757437   
     axis -90 45 -6.68868e-015   XYZ
    dof rx rz
    limits (-45.0 45.0)
           (-45.0 45.0)
  end
  begin
     id 24 
     name rclavicle
     direction -0.902944 0.422599 -0.0781198   
     length 3.54432  
     axis 0 0 0   XYZ 
    dof ry rz
    limits (-10.0 20.0)
           (-20.0 0.0)
  end
  begin
     id 25 
     name rhumerus
     direction -1 -4.48953e-011 -4.75835e-028  
     length 5.09181   
     axis 180 30 90   XYZ
    dof rx ry rz
    limits (-90.0 60.0)
           (-90.0 90.0)
           (-90.0 90.0)
  end
  begin
     id 26 
     name rradius
     direction -1 -4.48986e-011 -3.25889e-027   
     length 3.49865   
     axis 180 30 90   XYZ
    dof rx
    limits (-10.0 170.0)
  end
  begin
     id 27 
     name rwrist
     direction -1 -4.48963e-011 1.45989e-027   
     length 1.74933   
     axis 1.49639e-024 -90 -90   XYZ
    dof ry
    limits (-180.0 0.0)
  end
  begin
     id 28
     name rhand
     direction -1 -4.49003e-011 2.91844e-027   
     length 0.66641   
     axis -1.863e-015 -90 -90   XYZ
    dof rx rz
    limits (-90.0 90.0)
           (-45.0 45.0)
  end
  begin
     id 29
     name rfingers
     direction -1 -4.48973e-011 5.83886e-027   
     length 0.537277   
     axis -3.72598e-015 -90 -90   XYZ
    dof rx
    limits (0.0 90.0)
  end
  begin
     id 30
     name rthumb
     direction -0.707107 -6.34976e-011 0.707107   
     length 0.771425   
     axis -90 -45 6.68868e-015   XYZ
    dof rx rz
    limits (-45.0 45.0)
           (-45.0 45.0)
  end
:hierarchy
  begin
    root lhipjoint rhipjoint lowerback
    lhipjoint lfemur
    lfemur ltibia
    ltibia lfoot
    lfoot ltoes
    rhipjoint rfemur
    rfemur rtibia
    rtibia rfoot
    rfoot rtoes
    lowerback upperback
    upperback thorax
    thorax lowerneck lclavicle rclavicle
    lowerneck upperneck
    upperneck head
    lclavicle lhumerus
    lhumerus lradius
    lradius lwrist
    lwrist lhand lthumb
    lhand lfingers
    rclavicle rhumerus
    rhumerus rradius
    rradius rwrist
    rwrist rhand rthumb
    rhand rfingers
  end

#!OML:ASF H:\LiuWeirdWalks\Patient Classification 1\Patient 1\Session 1\male.ASF
:FULLY-SPECIFIED
:DEGREES
142
root 1.80843 17.7754 -31.4864 3.22937 1.4916 -0.191729
lowerback 3.3109 0.785066 -0.380107
upperback -1.64194 1.06626 1.08219
thorax -3.57397 0.553427 1.25939
lowerneck -18.9205 -0.0731722 6.65283
upperneck 22.462 -0.710936 -5.52021
head 10.2527 -0.422383 -3.18306
rclavicle 2.48481e-016 -2.26615e-014
rhumerus -40.1359 -18.63 -71.1931
rradius 28.6989
rwrist -5.07273
rhand -17.1322 -4.09772
rfingers 7.12502
rthumb 9.10773 -33.8811
lclavicle 2.48481e-016 -2.26615e-014
lhumerus -32.4193 -1.66368 86.638
lradius 28.7909
lwrist 9.48255
lhand -12.8907 0.263322
lfingers 7.12502
lthumb 13.1986 29.8255
rfemur -13.846 -2.27279 14.3755
rtibia 41.3324
rfoot -13.59 -21.8117
rtoes -9.42782
lfemur -7.44886 -0.804661 -23.9518
ltibia 27.0055
lfoot -14.5093 14.7974
ltoes -7.03608
143
root 1.82935 17.7729 -31.4803 3.18351 1.43847 -0.048133
lowerback 3.38086 0.771737 -0.48629
upperback -1.57895 1.04205 1.05679
thorax -3.54922 0.543156 1.29384
lowerneck -18.9784 -0.0370708 6.67378
upperneck 22.4219 -0.66455 -5.547
head 10.2522 -0.403538 -3.18956
rclavicle 1.28837e-014 2.38542e-015
rhumerus -40.147 -18.6658 -71.1875
rradius 28.6595
rwrist -5.08176
rhand -17.1438 -4.20576
rfingers 7.12502
rthumb 9.09661 -33.9896
lclavicle 1.28837e-014 2.38542e-015
lhumerus -32.1993 -1.6415 86.6286
lradius 28.8005
lwrist 9.46871
lhand -12.8558 0.241079
lfingers 7.12502
lthumb 13.2322 29.8011
rfemur -14.357 -2.19152 14.1205
rtibia 42.3605
rfoot -13.2991 -21.671
rtoes -9.55872
lfemur -7.34751 -0.673987 -24.1886
ltibia 26.9387
lfoot -14.4639 14.7536
ltoes -7.23243
144
root 1.85025 17.7712 -31.4739 3.13576 1.39203 0.0901424
lowerback 3.43829 0.744597 -0.590796
upperback -1.50728 0.999718 1.04254
thorax -3.50803 0.523788 1.34026
lowerneck -19.0202 0.0256517 6.70799
upperneck 22.328 -0.58043 -5.59139
head 10.232 -0.36885 -3.19772
rclavicle -7.30534e-015 -8.74653e-015
rhumerus -40.123 -18.6815 -71.1866
rradius 28.5912
rwrist -5.05822
rhand -17.1624 -4.29652
rfingers 7.12502
rthumb 9.0786 -34.0811
lclavicle -7.30534e-015 -8.74653e-015
lhumerus -31.9871 -1.56228 86.6152
lradius 28.8337
lwrist 9.48175
lhand -12.8306 0.281368
lfingers 7.12502
lthumb 13.2565 29.8398
rfemur -14.879 -2.11694 13.8717
rtibia 43.3968
rfoot -12.9475 -21.5238
rtoes -9.59031
lfemur -7.24339 -0.561167 -24.4216
ltibia 26.8698
lfoot -14.4011 14.7159
ltoes -7.42612
145
root 1.87002 17.7708 -31.4687 3.09549 1.38311 0.21884
lowerback 3.51299 0.698649 -0.694356
upperback -1.44268 0.932515 1.03482
thorax -3.48313 0.492114 1.3943
lowerneck -19.0583 0.0969821 6.74941
upperneck 22.2389 -0.483201 -5.64757
head 10.2138 -0.328823 -3.20959
rclavicle 1.18774e-014 -1.15295e-014
rhumerus -40.079 -18.7315 -71.1669
rradius 28.4761
rwrist -4.95298
rhand -17.1201 -4.27796
rfingers 7.12502
rthumb 9.11949 -34.0608
lclavicle 1.18774e-014 -1.15295e-014
lhumerus -31.7835 -1.45422 86.5925
lradius 28.8887
lwrist 9.54145
lhand -12.7744 0.376627
lfingers 7.12502
lthumb 13.3107 29.9315
rfemur -15.4152 -2.06651 13.6436
rtibia 44.4326
rfoot -12.5585 -21.3824
rtoes -9.44776
lfemur -7.15585 -0.470901 -24.6371
ltibia 26.8021
lfoot -14.3173 14.6574
ltoes -7.6484
146
root 1.88965 17.7714 -31.4624 3.0445 1.35783 0.311976
lowerback 3.5861 0.657666 -0.761349
upperback -1.39592 0.874034 1.03503
thorax -3.47538 0.464187 1.43544
lowerneck -19.0022 0.149473 6.76699
upperneck 22.1407 -0.403932 -5.68467
head 10.1734 -0.295973 -3.21156
rclavicle -1.46604e-015 5.96354e-015
rhumerus -40.0817 -18.8181 -71.1014
rradius 28.321
rwrist -4.74599
rhand -17.0391 -4.15439
rfingers 7.12502
rthumb 9.19765 -33.9338
lclavicle -1.46604e-015 5.96354e-015
lhumerus -31.6444 -1.34603 86.5698
lradius 28.9608
lwrist 9.63193
lhand -12.7386 0.518126
lfingers 7.12502
lthumb 13.3452 30.0708
rfemur -15.9474 -1.9973 13.4607
rtibia 45.4571
rfoot -12.1305 -21.244
rtoes -9.13925
lfemur -7.0545 -0.412237 -24.8194
ltibia 26.7368
lfoot -14.2164 14.6415
ltoes -7.81825
147
root 1.90774 17.7733 -31.4566 2.99433 1.37477 0.384539
lowerback 3.66684 0.61372 -0.818778
upperback -1.35981 0.812071 1.03627
thorax -3.48257 0.434446 1.47245
lowerneck -18.9273 0.172982 6.77341
upperneck 22.0659 -0.364437 -5.70515
head 10.1352 -0.279884 -3.21158
rclavicle -6.78353e-015 1.63003e-014
rhumerus -40.1118 -18.9537 -71.0154
rradius 28.157
rwrist -4.51503
rhand -16.9612 -4.02022
rfingers 7.12502
rthumb 9.27278 -33.7963
lclavicle -6.78353e-015 1.63003e-014
lhumerus -31.5155 -1.28691 86.5532
lradius 29.0226
lwrist 9.74233
lhand -12.7201 0.65921
lfingers 7.12502
lthumb 13.363 30.2107
rfemur -16.4769 -1.948 13.3174
rtibia 46.4739
rfoot -11.6913 -21.1203
rtoes -8.65713
lfemur -6.96502 -0.406073 -24.972
ltibia 26.6836
lfoot -14.1005 14.6313
ltoes -7.97707
